<?xml version="1.0" encoding="UTF-8" standalone="no"?>
<!-- Created with Inkscape (http://www.inkscape.org/) -->

<svg
   xmlns:dc="http://purl.org/dc/elements/1.1/"
   xmlns:cc="http://creativecommons.org/ns#"
   xmlns:rdf="http://www.w3.org/1999/02/22-rdf-syntax-ns#"
   xmlns:svg="http://www.w3.org/2000/svg"
   xmlns="http://www.w3.org/2000/svg"
   xmlns:sodipodi="http://sodipodi.sourceforge.net/DTD/sodipodi-0.dtd"
   xmlns:inkscape="http://www.inkscape.org/namespaces/inkscape"
   width="238.10281mm"
   height="224.20482mm"
   viewBox="0 0 238.10281 224.20481"
   version="1.1"
   id="svg8"
   inkscape:export-filename="/home/lnxusr1/Desktop/karen1.png"
   inkscape:export-xdpi="21.34"
   inkscape:export-ydpi="21.34"
   sodipodi:docname="robot.svg"
   style="enable-background:new"
   inkscape:version="0.92.3 (2405546, 2018-03-11)">
  <defs
     id="defs2" />
  <sodipodi:namedview
     id="base"
     pagecolor="#ffffff"
     bordercolor="#666666"
     borderopacity="1.0"
     inkscape:pageopacity="0.0"
     inkscape:pageshadow="2"
     inkscape:zoom="0.49497475"
     inkscape:cx="664.40657"
     inkscape:cy="233.43248"
     inkscape:document-units="mm"
     inkscape:current-layer="layer4"
     showgrid="false"
     inkscape:window-width="1869"
     inkscape:window-height="1025"
     inkscape:window-x="51"
     inkscape:window-y="27"
     inkscape:window-maximized="1"
     showguides="false" />
  <metadata
     id="metadata5">
    <rdf:RDF>
      <cc:Work
         rdf:about="">
        <dc:format>image/svg+xml</dc:format>
        <dc:type
           rdf:resource="http://purl.org/dc/dcmitype/StillImage" />
        <dc:title></dc:title>
      </cc:Work>
    </rdf:RDF>
  </metadata>
  <g
     inkscape:groupmode="layer"
     id="layer4"
     inkscape:label="Layer 2"
     style="display:inline"
     transform="translate(-0.15080409,3.5427215)">
    <rect
       style="display:inline;opacity:1;fill:#333333;fill-opacity:1;stroke:none;stroke-width:6.12934017;stroke-miterlimit:4;stroke-dasharray:none;enable-background:new"
       id="rect1009"
       width="238.10281"
       height="224.20482"
       x="0.15080409"
       y="-3.5427215"
       ry="0" />
  </g>
  <g
     inkscape:label="Layer 1"
     inkscape:groupmode="layer"
     id="layer1"
     style="display:inline"
     transform="translate(10.565258,-45.384341)">
    <rect
       style="display:inline;fill:none;fill-opacity:1;stroke:#ffffff;stroke-width:6;stroke-miterlimit:4;stroke-dasharray:none;stroke-opacity:1"
       id="rect4569-7"
       width="56.492912"
       height="20.085283"
       x="80.19191"
       y="122.0771"
       inkscape:export-xdpi="96"
       inkscape:export-ydpi="96" />
    <rect
       style="opacity:0.2;fill:#ffcc00;fill-opacity:1;stroke:none;stroke-width:5.72399998;stroke-miterlimit:4;stroke-dasharray:none"
       id="rect1027"
       width="132.98238"
       height="69.10421"
       x="42.101276"
       y="53.427063" />
    <rect
       style="fill:none;fill-opacity:1;stroke:#ffffff;stroke-width:9;stroke-miterlimit:4;stroke-dasharray:none;stroke-opacity:1"
       id="rect4548"
       width="132.98238"
       height="69.10421"
       x="42.101276"
       y="53.427063"
       inkscape:export-xdpi="96"
       inkscape:export-ydpi="96" />
    <circle
       style="display:inline;fill:none;fill-opacity:1;stroke:#ffffff;stroke-width:10;stroke-miterlimit:4;stroke-dasharray:none;stroke-opacity:1"
       id="circle3732"
       r="15.038933"
       cy="87.223206"
       cx="79.223808"
       inkscape:export-xdpi="96"
       inkscape:export-ydpi="96" />
    <circle
       cx="135.84456"
       cy="87.223206"
       r="15.038933"
       id="circle4567"
       style="display:inline;fill:none;fill-opacity:1;stroke:#ffffff;stroke-width:10;stroke-miterlimit:4;stroke-dasharray:none;stroke-opacity:1"
       inkscape:export-xdpi="96"
       inkscape:export-ydpi="96" />
    <path
       transform="scale(-1)"
       d="m -112.52687,-262.15475 a 29.743168,29.743168 0 0 1 -14.87041,25.77374 29.743168,29.743168 0 0 1 -29.75592,-0.006 29.743168,29.743168 0 0 1 -14.85999,-25.77974 l 29.74316,0.0281 z"
       sodipodi:end="3.1425371"
       sodipodi:start="6.2826449"
       sodipodi:ry="29.743168"
       sodipodi:rx="29.743168"
       sodipodi:cy="-262.13867"
       sodipodi:cx="-142.27003"
       sodipodi:type="arc"
       id="path4620-5"
       style="display:inline;opacity:0.2;fill:#ffcc00;fill-opacity:1;stroke:none;stroke-width:9.25800037;stroke-miterlimit:4;stroke-dasharray:none;stroke-opacity:1"
       inkscape:export-xdpi="96"
       inkscape:export-ydpi="96" />
    <path
       transform="scale(-1)"
       d="m -112.52687,-262.15475 a 29.743166,29.743166 0 0 1 -14.87041,25.77374 29.743166,29.743166 0 0 1 -29.75591,-0.006 29.743166,29.743166 0 0 1 -14.86,-25.77974 l 29.74316,0.0281 z"
       sodipodi:end="3.1425371"
       sodipodi:start="6.2826449"
       sodipodi:ry="29.743166"
       sodipodi:rx="29.743166"
       sodipodi:cy="-262.13867"
       sodipodi:cx="-142.27003"
       sodipodi:type="arc"
       id="path4620"
       style="fill:none;fill-opacity:1;stroke:#ffffff;stroke-width:9.25771523;stroke-miterlimit:4;stroke-dasharray:none;stroke-opacity:1"
       inkscape:export-xdpi="96"
       inkscape:export-ydpi="96" />
    <path
       transform="scale(-1)"
       d="m -49.499566,-262.7748 a 29.743168,29.743168 0 0 1 -14.870408,25.77373 29.743168,29.743168 0 0 1 -29.755916,-0.006 29.743168,29.743168 0 0 1 -14.85999,-25.77974 l 29.743151,0.0281 z"
       sodipodi:end="3.1425371"
       sodipodi:start="6.2826449"
       sodipodi:ry="29.743168"
       sodipodi:rx="29.743168"
       sodipodi:cy="-262.75873"
       sodipodi:cx="-79.242729"
       sodipodi:type="arc"
       id="path4620-5-6"
       style="display:inline;opacity:0.2;fill:#ffcc00;fill-opacity:1;stroke:none;stroke-width:9.25800037;stroke-miterlimit:4;stroke-dasharray:none;stroke-opacity:1"
       inkscape:export-xdpi="96"
       inkscape:export-ydpi="96" />
    <rect
       style="display:inline;fill:none;fill-opacity:1;stroke:#ffffff;stroke-width:7.99513483;stroke-miterlimit:4;stroke-dasharray:none;stroke-opacity:1"
       id="rect4622-3"
       width="2.3728402"
       height="21.381561"
       x="141.27377"
       y="210.40468"
       inkscape:export-xdpi="96"
       inkscape:export-ydpi="96" />
    <path
       style="fill:none;fill-opacity:1;stroke:#ffffff;stroke-width:9.25771523;stroke-miterlimit:4;stroke-dasharray:none;stroke-opacity:1"
       id="path4639"
       sodipodi:type="arc"
       sodipodi:cx="-77.711884"
       sodipodi:cy="-262.13867"
       sodipodi:rx="29.743166"
       sodipodi:ry="29.743166"
       sodipodi:start="6.2826449"
       sodipodi:end="3.1425371"
       d="m -47.968722,-262.15475 a 29.743166,29.743166 0 0 1 -14.870408,25.77374 29.743166,29.743166 0 0 1 -29.755913,-0.006 29.743166,29.743166 0 0 1 -14.859997,-25.77974 l 29.743156,0.0281 z"
       transform="scale(-1)"
       inkscape:export-xdpi="96"
       inkscape:export-ydpi="96" />
    <rect
       y="210.40468"
       x="76.715599"
       height="21.381561"
       width="2.3728402"
       id="rect4641"
       style="display:inline;fill:none;fill-opacity:1;stroke:#ffffff;stroke-width:7.99513483;stroke-miterlimit:4;stroke-dasharray:none;stroke-opacity:1"
       inkscape:export-xdpi="96"
       inkscape:export-ydpi="96" />
    <path
       style="display:inline;opacity:0.2;fill:#ffcc00;fill-opacity:1;stroke:none;stroke-width:6;stroke-miterlimit:4;stroke-dasharray:none;stroke-opacity:1"
       id="path4643-2"
       sodipodi:type="arc"
       sodipodi:cx="-93.745087"
       sodipodi:cy="83.877884"
       sodipodi:rx="18.441597"
       sodipodi:ry="18.441597"
       sodipodi:start="6.2826443"
       sodipodi:end="3.1425351"
       d="m -75.303492,83.867907 a 18.441597,18.441597 0 0 1 -9.220053,15.980439 18.441597,18.441597 0 0 1 -18.449495,-0.0037 18.441597,18.441597 0 0 1 -9.21364,-15.984139 l 18.441593,0.01738 z"
       transform="rotate(-50.521558)"
       inkscape:export-xdpi="96"
       inkscape:export-ydpi="96" />
    <path
       style="fill:none;fill-opacity:1;stroke:#ffffff;stroke-width:6;stroke-miterlimit:4;stroke-dasharray:none;stroke-opacity:1"
       id="path4643"
       sodipodi:type="arc"
       sodipodi:cx="-93.660187"
       sodipodi:cy="83.944389"
       sodipodi:rx="18.441597"
       sodipodi:ry="18.441597"
       sodipodi:start="6.2826443"
       sodipodi:end="3.1425351"
       d="m -75.218592,83.934412 a 18.441597,18.441597 0 0 1 -9.220053,15.98044 18.441597,18.441597 0 0 1 -18.449495,-0.0037 18.441597,18.441597 0 0 1 -9.21364,-15.98414 l 18.441593,0.01738 z"
       transform="rotate(-50.521557)"
       inkscape:export-xdpi="96"
       inkscape:export-ydpi="96" />
    <rect
       style="fill:none;fill-opacity:1;stroke:#ffffff;stroke-width:6.38348341;stroke-miterlimit:4;stroke-dasharray:none;stroke-opacity:1"
       id="rect4645"
       width="1.1284212"
       height="42.705799"
       x="-94.376747"
       y="104.26179"
       transform="rotate(-50.521557)"
       inkscape:export-xdpi="96"
       inkscape:export-ydpi="96" />
    <path
       transform="matrix(-0.63578785,-0.77186385,-0.77186385,0.63578785,0,0)"
       d="m -212.6799,-82.94615 a 18.441597,18.441597 0 0 1 -9.22005,15.98044 18.441597,18.441597 0 0 1 -18.44949,-0.0037 18.441597,18.441597 0 0 1 -9.21364,-15.98414 l 18.44159,0.01738 z"
       sodipodi:end="3.1425351"
       sodipodi:start="6.2826443"
       sodipodi:ry="18.441597"
       sodipodi:rx="18.441597"
       sodipodi:cy="-82.936172"
       sodipodi:cx="-231.12149"
       sodipodi:type="arc"
       id="path4665-9"
       style="display:inline;opacity:0.2;fill:#ffcc00;fill-opacity:1;stroke:none;stroke-width:6;stroke-miterlimit:4;stroke-dasharray:none;stroke-opacity:1"
       inkscape:export-xdpi="96"
       inkscape:export-ydpi="96" />
    <path
       transform="matrix(-0.63578786,-0.77186385,-0.77186385,0.63578786,0,0)"
       d="m -212.6799,-82.94615 a 18.441597,18.441597 0 0 1 -9.22005,15.98044 18.441597,18.441597 0 0 1 -18.44949,-0.0037 18.441597,18.441597 0 0 1 -9.21364,-15.98414 l 18.44159,0.01738 z"
       sodipodi:end="3.1425351"
       sodipodi:start="6.2826443"
       sodipodi:ry="18.441597"
       sodipodi:rx="18.441597"
       sodipodi:cy="-82.936172"
       sodipodi:cx="-231.12149"
       sodipodi:type="arc"
       id="path4665"
       style="fill:none;fill-opacity:1;stroke:#ffffff;stroke-width:6;stroke-miterlimit:4;stroke-dasharray:none;stroke-opacity:1"
       inkscape:export-xdpi="96"
       inkscape:export-ydpi="96" />
    <rect
       transform="matrix(-0.63578786,-0.77186385,-0.77186385,0.63578786,0,0)"
       y="-62.618618"
       x="-231.83806"
       height="42.705799"
       width="1.1284212"
       id="rect4667"
       style="fill:none;fill-opacity:1;stroke:#ffffff;stroke-width:6.38348341;stroke-miterlimit:4;stroke-dasharray:none;stroke-opacity:1"
       inkscape:export-xdpi="96"
       inkscape:export-ydpi="96" />
    <rect
       style="fill:none;stroke:#ffffff;stroke-width:8.5;stroke-miterlimit:4;stroke-dasharray:none"
       id="rect66"
       width="107.8642"
       height="67.334053"
       x="54.258312"
       y="142.1837" />
    <path
       style="fill:none;stroke:#ffcc00;stroke-width:4.82919264;stroke-linecap:butt;stroke-linejoin:miter;stroke-miterlimit:4;stroke-dasharray:none;stroke-opacity:1"
       d="m 72.584417,176.51988 h 10.93974 l 3.714858,-4.69317 6.360462,11.18413 11.062823,-21.76255 11.70112,27.81531 9.77764,-17.57463 4.72854,9.48047 3.80686,-4.46074 h 9.73757"
       id="path1007"
       inkscape:connector-curvature="0" />
  </g>
</svg>
