<?xml version="1.0" standalone="no"?>
<!DOCTYPE svg PUBLIC "-//W3C//DTD SVG 20010904//EN"
 "http://www.w3.org/TR/2001/REC-SVG-20010904/DTD/svg10.dtd">
<svg version="1.0" xmlns="http://www.w3.org/2000/svg"
 width="200.000000pt" height="200.000000pt" viewBox="0 0 200.000000 200.000000"
 preserveAspectRatio="xMidYMid meet">
<metadata>
Created by potrace 1.11, written by Peter Selinger 2001-2013
</metadata>
<g transform="translate(0.000000,200.000000) scale(0.100000,-0.100000)"
fill="#000000" stroke="none">
<path d="M900 1749 c-36 -10 -76 -21 -90 -24 -14 -2 -41 -10 -60 -15 -19 -6
-46 -13 -60 -16 -14 -3 -59 -14 -100 -26 -41 -11 -79 -21 -85 -22 -5 -2 -21
-6 -35 -10 l-26 -7 0 -295 0 -294 26 4 c14 2 73 16 133 32 l107 28 1 85 c0 47
1 128 2 180 l2 94 225 59 c240 63 262 68 298 72 12 2 25 5 28 9 10 9 -36 96
-56 107 -10 5 -24 16 -32 22 -41 39 -171 47 -278 17z"/>
<path d="M1289 1602 c-12 -2 -16 -17 -17 -60 -2 -75 -3 -79 -35 -143 -32 -65
-115 -147 -194 -192 -28 -15 -134 -52 -184 -63 -45 -10 -56 -13 -81 -23 -16
-6 -28 -8 -28 -5 0 2 -9 0 -20 -6 -18 -10 -20 -21 -20 -125 0 -104 -2 -115
-20 -125 -11 -6 -20 -9 -20 -6 0 2 -21 -2 -46 -10 -25 -7 -49 -13 -52 -12 -4
1 -14 -1 -22 -5 -8 -3 -35 -11 -60 -19 l-45 -13 0 -193 c-1 -107 3 -196 7
-198 10 -7 148 28 148 37 0 4 8 5 18 3 9 -3 34 2 55 11 27 11 37 21 37 38 1
12 1 101 1 199 l0 176 27 7 c15 4 34 9 42 10 8 2 76 20 150 40 74 20 142 38
150 40 209 48 332 120 405 235 70 112 67 270 -7 336 -52 46 -140 77 -189 66z"/>
<path d="M1290 1009 c-1 -2 -2 -38 -4 -79 -3 -74 -5 -82 -20 -130 -25 -76
-123 -180 -215 -229 -49 -26 -153 -61 -231 -78 -14 -2 -29 -6 -35 -8 -5 -1
-25 -6 -42 -10 l-33 -7 0 -119 c0 -66 3 -119 6 -119 3 0 34 7 68 16 33 9 68
18 76 19 8 2 15 4 15 5 0 1 7 3 15 5 8 2 25 6 38 9 12 3 30 8 40 10 9 2 62 16
117 31 55 15 111 29 124 32 48 11 157 72 202 112 107 94 165 252 137 371 -16
66 -69 125 -133 150 -30 12 -125 26 -125 19z"/>
</g>
</svg>
