<svg baseProfile="full" height="1024" width="2231.245" xmlns="http://www.w3.org/2000/svg"><circle cx="512" cy="512" r="480" style="opacity:.4" transform="translate(16 16)"/><circle cx="512" cy="512" r="480" style="fill:#cecece" transform="translate(-16 -16)"/><circle cx="512" cy="512" r="480" style="fill:#fefaef"/><path d="M62.5 792Q50 779 50 760q0-8 5-20l255-602q8-18 22.5-29.5T368 97h10q21 0 35.5 11.5T436 138l255 602q5 12 5 20 0 19-12.5 32T651 805q-14 0-25.5-7.5T608 777l-65-156H203l-65 156q-6 13-17.5 20.5T95 805q-20 0-32.5-13M238 538h270L373 213 238 538" transform="matrix(0 -1.024 1.024 0 16 909.952)" style="opacity:.4"/><path d="M62.5 792Q50 779 50 760q0-8 5-20l255-602q8-18 22.5-29.5T368 97h10q21 0 35.5 11.5T436 138l255 602q5 12 5 20 0 19-12.5 32T651 805q-14 0-25.5-7.5T608 777l-65-156H203l-65 156q-6 13-17.5 20.5T95 805q-20 0-32.5-13M238 538h270L373 213 238 538" transform="matrix(0 -1.024 1.024 0 0 893.952)" style="fill:#1e3d59"/><path d="M867.302 688.973q-7.372-3.072-12.288-10.138-4.915-7.065-4.915-15.053 0-10.444 7.066-18.124 7.065-7.68 18.125-7.68 6.144 0 11.673 2.457 56.525 25.19 121.037 25.19 107.52 0 107.52-70.655 0-18.432-13.824-30.72t-34.1-19.354q-20.274-7.066-57.753-16.896-49.766-12.902-80.486-24.883-30.72-11.981-52.839-35.943-22.118-23.961-22.118-63.897 0-35.021 18.432-63.59 18.432-28.57 54.374-45.466 35.943-16.896 86.324-16.896 67.584 0 122.265 20.275 17.203 6.144 17.203 24.576 0 9.83-6.758 17.818-6.758 7.987-17.818 7.987-3.686 0-9.83-2.458-47.923-16.589-98.918-16.589-48.538 0-78.95 18.432-30.414 18.432-30.414 51.61 0 22.118 14.439 35.942 14.438 13.824 36.25 21.504 21.81 7.68 59.289 16.282 48.538 11.674 78.336 23.347 29.798 11.674 50.995 36.25t21.197 66.355q0 34.406-19.66 61.747-19.662 27.341-55.297 42.701t-82.33 15.36q-78.028 0-146.227-29.491m403.661 18.432q-7.987-7.987-7.987-19.661V308.659q0-11.673 7.987-19.968 7.987-8.294 19.661-8.294 11.674 0 19.968 8.294 8.294 8.295 8.294 19.968v379.085q0 11.674-8.294 19.66-8.294 7.988-19.968 7.988t-19.66-7.987m181.247-3.072q-7.987-7.987-7.987-19.661v-372.94q0-11.674 7.987-19.969 7.987-8.294 19.661-8.294h123.494q70.042 0 118.887 31.027t73.42 80.18q24.577 49.151 24.577 103.218 0 54.068-24.576 103.22t-73.421 80.179q-48.845 31.027-118.887 31.027h-123.494q-11.674 0-19.66-7.987m136.396-44.237q50.38 0 88.474-20.582 38.092-20.583 58.982-57.14 20.89-36.556 20.89-84.48 0-47.923-20.89-84.48-20.89-36.556-58.982-57.139-38.093-20.582-88.474-20.582h-88.474v324.403h88.474m331.162 44.237q-7.988-7.987-7.988-19.661v-372.94q0-11.674 7.988-19.969 7.987-8.294 19.66-8.294h246.375q11.059 0 18.739 7.68 7.68 7.68 7.68 18.739 0 11.06-7.68 18.432-7.68 7.373-18.74 7.373h-218.111v135.782h195.993q11.06 0 18.74 7.68 7.68 7.68 7.68 18.74 0 11.059-7.68 18.431-7.68 7.373-18.74 7.373h-195.993v136.397h218.112q11.059 0 18.739 7.68 7.68 7.68 7.68 18.74 0 11.058-7.68 18.431-7.68 7.373-18.74 7.373H1939.43q-11.673 0-19.66-7.987" style="opacity:.4"/><path d="M851.302 672.973q-7.372-3.072-12.288-10.138-4.915-7.065-4.915-15.053 0-10.444 7.066-18.124 7.065-7.68 18.125-7.68 6.144 0 11.673 2.457 56.525 25.19 121.037 25.19 107.52 0 107.52-70.655 0-18.432-13.824-30.72t-34.1-19.354q-20.274-7.066-57.753-16.896-49.766-12.902-80.486-24.883-30.72-11.981-52.839-35.943-22.118-23.961-22.118-63.897 0-35.021 18.432-63.59 18.432-28.57 54.374-45.466 35.943-16.896 86.324-16.896 67.584 0 122.265 20.275 17.203 6.144 17.203 24.576 0 9.83-6.758 17.818-6.758 7.987-17.818 7.987-3.686 0-9.83-2.458-47.923-16.589-98.918-16.589-48.538 0-78.95 18.432-30.414 18.432-30.414 51.61 0 22.118 14.439 35.942 14.438 13.824 36.25 21.504 21.81 7.68 59.289 16.282 48.538 11.674 78.336 23.347 29.798 11.674 50.995 36.25t21.197 66.355q0 34.406-19.66 61.747-19.662 27.341-55.297 42.701t-82.33 15.36q-78.028 0-146.227-29.491m403.661 18.432q-7.987-7.987-7.987-19.661V292.659q0-11.673 7.987-19.968 7.987-8.294 19.661-8.294 11.674 0 19.968 8.294 8.294 8.295 8.294 19.968v379.085q0 11.674-8.294 19.66-8.294 7.988-19.968 7.988t-19.66-7.987m181.247-3.072q-7.987-7.987-7.987-19.661v-372.94q0-11.674 7.987-19.969 7.987-8.294 19.661-8.294h123.494q70.042 0 118.887 31.027t73.42 80.18q24.577 49.151 24.577 103.218 0 54.068-24.576 103.22t-73.421 80.179q-48.845 31.027-118.887 31.027h-123.494q-11.674 0-19.66-7.987m136.396-44.237q50.38 0 88.474-20.582 38.092-20.583 58.982-57.14 20.89-36.556 20.89-84.48 0-47.923-20.89-84.48-20.89-36.556-58.982-57.139-38.093-20.582-88.474-20.582h-88.474v324.403h88.474m331.162 44.237q-7.988-7.987-7.988-19.661v-372.94q0-11.674 7.988-19.969 7.987-8.294 19.66-8.294h246.375q11.059 0 18.739 7.68 7.68 7.68 7.68 18.739 0 11.06-7.68 18.432-7.68 7.373-18.74 7.373h-218.111v135.782h195.993q11.06 0 18.74 7.68 7.68 7.68 7.68 18.74 0 11.059-7.68 18.431-7.68 7.373-18.74 7.373h-195.993v136.397h218.112q11.059 0 18.739 7.68 7.68 7.68 7.68 18.74 0 11.058-7.68 18.431-7.68 7.373-18.74 7.373H1923.43q-11.673 0-19.66-7.987" style="fill:#1e3d59"/></svg>